<mxfile modified="2022-02-25T10:32:32.248Z" host="app.diagrams.net" agent="5.0 (Macintosh; Intel Mac OS X 10_14_6) AppleWebKit/537.36 (KHTML, like Gecko) Chrome/98.0.4758.109 Safari/537.36" etag="Jf6r_2dJiotv6f_ZiOOT" version="16.4.11" type="github">
  <diagram id="f106602c-feb2-e66a-4537-3a34d633f6aa" name="Page-1">
    <mxGraphModel dx="946" dy="625" grid="1" gridSize="10" guides="1" tooltips="1" connect="1" arrows="1" fold="1" page="1" pageScale="1" pageWidth="1169" pageHeight="827" background="#ffffff" math="0" shadow="0">
      <root>
        <mxCell id="0" />
        <mxCell id="1" parent="0" />
        <mxCell id="2" value="AWS 部署方案" style="fillColor=#4DA1F5;strokeColor=none;shadow=1;gradientColor=none;fontSize=14;align=left;spacingLeft=50;fontColor=#ffffff;html=1;" parent="1" vertex="1">
          <mxGeometry x="230" y="40" width="770" height="40" as="geometry" />
        </mxCell>
        <mxCell id="9T4JoW6NmIZIovO3fXfj-731" style="edgeStyle=orthogonalEdgeStyle;rounded=0;orthogonalLoop=1;jettySize=auto;html=1;fontColor=#333333;" edge="1" parent="1" source="9T4JoW6NmIZIovO3fXfj-719" target="9T4JoW6NmIZIovO3fXfj-732">
          <mxGeometry relative="1" as="geometry">
            <mxPoint x="380" y="160" as="targetPoint" />
          </mxGeometry>
        </mxCell>
        <mxCell id="9T4JoW6NmIZIovO3fXfj-719" value="" style="sketch=0;outlineConnect=0;fontColor=#232F3E;gradientColor=none;fillColor=#232F3D;strokeColor=none;dashed=0;verticalLabelPosition=bottom;verticalAlign=top;align=center;html=1;fontSize=12;fontStyle=0;aspect=fixed;pointerEvents=1;shape=mxgraph.aws4.user;" vertex="1" parent="1">
          <mxGeometry x="220" y="170" width="60" height="60" as="geometry" />
        </mxCell>
        <mxCell id="9T4JoW6NmIZIovO3fXfj-720" value="AWS Cloud" style="points=[[0,0],[0.25,0],[0.5,0],[0.75,0],[1,0],[1,0.25],[1,0.5],[1,0.75],[1,1],[0.75,1],[0.5,1],[0.25,1],[0,1],[0,0.75],[0,0.5],[0,0.25]];outlineConnect=0;gradientColor=none;html=1;whiteSpace=wrap;fontSize=12;fontStyle=0;container=1;pointerEvents=0;collapsible=0;recursiveResize=0;shape=mxgraph.aws4.group;grIcon=mxgraph.aws4.group_aws_cloud_alt;strokeColor=#232F3E;fillColor=none;verticalAlign=top;align=left;spacingLeft=30;fontColor=#232F3E;dashed=0;" vertex="1" parent="1">
          <mxGeometry x="350" y="100" width="650" height="685" as="geometry" />
        </mxCell>
        <mxCell id="9T4JoW6NmIZIovO3fXfj-722" value="VPC" style="points=[[0,0],[0.25,0],[0.5,0],[0.75,0],[1,0],[1,0.25],[1,0.5],[1,0.75],[1,1],[0.75,1],[0.5,1],[0.25,1],[0,1],[0,0.75],[0,0.5],[0,0.25]];outlineConnect=0;gradientColor=none;html=1;whiteSpace=wrap;fontSize=12;fontStyle=0;container=1;pointerEvents=0;collapsible=0;recursiveResize=0;shape=mxgraph.aws4.group;grIcon=mxgraph.aws4.group_vpc;strokeColor=#248814;fillColor=none;verticalAlign=top;align=left;spacingLeft=30;fontColor=#333333;dashed=0;" vertex="1" parent="9T4JoW6NmIZIovO3fXfj-720">
          <mxGeometry y="200" width="650" height="485" as="geometry" />
        </mxCell>
        <mxCell id="9T4JoW6NmIZIovO3fXfj-756" value="" style="group" vertex="1" connectable="0" parent="9T4JoW6NmIZIovO3fXfj-722">
          <mxGeometry x="15" y="39" width="295" height="271" as="geometry" />
        </mxCell>
        <mxCell id="9T4JoW6NmIZIovO3fXfj-758" value="" style="group" vertex="1" connectable="0" parent="9T4JoW6NmIZIovO3fXfj-756">
          <mxGeometry width="295" height="271" as="geometry" />
        </mxCell>
        <mxCell id="9T4JoW6NmIZIovO3fXfj-736" value="Server 1" style="fillColor=#EFF0F3;strokeColor=none;dashed=0;verticalAlign=top;fontStyle=0;fontColor=#232F3D;fontSize=10;" vertex="1" parent="9T4JoW6NmIZIovO3fXfj-758">
          <mxGeometry width="295" height="271" as="geometry" />
        </mxCell>
        <mxCell id="9T4JoW6NmIZIovO3fXfj-746" value="" style="sketch=0;outlineConnect=0;fontColor=#232F3E;gradientColor=none;fillColor=#D45B07;strokeColor=none;dashed=0;verticalLabelPosition=bottom;verticalAlign=top;align=center;html=1;fontSize=12;fontStyle=0;aspect=fixed;pointerEvents=1;shape=mxgraph.aws4.m5d_instance;" vertex="1" parent="9T4JoW6NmIZIovO3fXfj-758">
          <mxGeometry x="255" width="40" height="40" as="geometry" />
        </mxCell>
        <mxCell id="9T4JoW6NmIZIovO3fXfj-750" value="Tommy App(Crane)" style="sketch=0;points=[[0,0,0],[0.25,0,0],[0.5,0,0],[0.75,0,0],[1,0,0],[0,1,0],[0.25,1,0],[0.5,1,0],[0.75,1,0],[1,1,0],[0,0.25,0],[0,0.5,0],[0,0.75,0],[1,0.25,0],[1,0.5,0],[1,0.75,0]];outlineConnect=0;fontColor=#232F3E;gradientColor=#333333;gradientDirection=north;fillColor=#4D4D4D;strokeColor=#ffffff;dashed=0;verticalLabelPosition=bottom;verticalAlign=top;align=center;html=1;fontSize=12;fontStyle=0;aspect=fixed;shape=mxgraph.aws4.resourceIcon;resIcon=mxgraph.aws4.application_integration;" vertex="1" parent="9T4JoW6NmIZIovO3fXfj-758">
          <mxGeometry x="35" y="61" width="49" height="49" as="geometry" />
        </mxCell>
        <mxCell id="9T4JoW6NmIZIovO3fXfj-751" value="Tommy App(Portal)" style="sketch=0;points=[[0,0,0],[0.25,0,0],[0.5,0,0],[0.75,0,0],[1,0,0],[0,1,0],[0.25,1,0],[0.5,1,0],[0.75,1,0],[1,1,0],[0,0.25,0],[0,0.5,0],[0,0.75,0],[1,0.25,0],[1,0.5,0],[1,0.75,0]];outlineConnect=0;fontColor=#232F3E;gradientColor=#333333;gradientDirection=north;fillColor=#4D4D4D;strokeColor=#ffffff;dashed=0;verticalLabelPosition=bottom;verticalAlign=top;align=center;html=1;fontSize=12;fontStyle=0;aspect=fixed;shape=mxgraph.aws4.resourceIcon;resIcon=mxgraph.aws4.application_integration;" vertex="1" parent="9T4JoW6NmIZIovO3fXfj-758">
          <mxGeometry x="195" y="61" width="49" height="49" as="geometry" />
        </mxCell>
        <mxCell id="9T4JoW6NmIZIovO3fXfj-752" style="edgeStyle=none;rounded=0;orthogonalLoop=1;jettySize=auto;html=1;fontSize=10;fontColor=#333333;" edge="1" parent="9T4JoW6NmIZIovO3fXfj-758" source="9T4JoW6NmIZIovO3fXfj-750" target="9T4JoW6NmIZIovO3fXfj-751">
          <mxGeometry relative="1" as="geometry" />
        </mxCell>
        <mxCell id="9T4JoW6NmIZIovO3fXfj-754" value="CK App(Crane)" style="sketch=0;points=[[0,0,0],[0.25,0,0],[0.5,0,0],[0.75,0,0],[1,0,0],[0,1,0],[0.25,1,0],[0.5,1,0],[0.75,1,0],[1,1,0],[0,0.25,0],[0,0.5,0],[0,0.75,0],[1,0.25,0],[1,0.5,0],[1,0.75,0]];outlineConnect=0;fontColor=#232F3E;gradientColor=#FFFF00;gradientDirection=north;fillColor=#009999;strokeColor=#ffffff;dashed=0;verticalLabelPosition=bottom;verticalAlign=top;align=center;html=1;fontSize=12;fontStyle=0;aspect=fixed;shape=mxgraph.aws4.resourceIcon;resIcon=mxgraph.aws4.application_integration;" vertex="1" parent="9T4JoW6NmIZIovO3fXfj-758">
          <mxGeometry x="35" y="171" width="49" height="49" as="geometry" />
        </mxCell>
        <mxCell id="9T4JoW6NmIZIovO3fXfj-755" value="CK App(Portal)" style="sketch=0;points=[[0,0,0],[0.25,0,0],[0.5,0,0],[0.75,0,0],[1,0,0],[0,1,0],[0.25,1,0],[0.5,1,0],[0.75,1,0],[1,1,0],[0,0.25,0],[0,0.5,0],[0,0.75,0],[1,0.25,0],[1,0.5,0],[1,0.75,0]];outlineConnect=0;fontColor=#232F3E;gradientColor=#FFFF00;gradientDirection=north;fillColor=#009999;strokeColor=#ffffff;dashed=0;verticalLabelPosition=bottom;verticalAlign=top;align=center;html=1;fontSize=12;fontStyle=0;aspect=fixed;shape=mxgraph.aws4.resourceIcon;resIcon=mxgraph.aws4.application_integration;" vertex="1" parent="9T4JoW6NmIZIovO3fXfj-758">
          <mxGeometry x="195" y="171" width="49" height="49" as="geometry" />
        </mxCell>
        <mxCell id="9T4JoW6NmIZIovO3fXfj-753" style="edgeStyle=none;rounded=0;orthogonalLoop=1;jettySize=auto;html=1;fontSize=10;fontColor=#333333;" edge="1" parent="9T4JoW6NmIZIovO3fXfj-758" source="9T4JoW6NmIZIovO3fXfj-754" target="9T4JoW6NmIZIovO3fXfj-755">
          <mxGeometry relative="1" as="geometry" />
        </mxCell>
        <mxCell id="9T4JoW6NmIZIovO3fXfj-759" value="" style="group" vertex="1" connectable="0" parent="9T4JoW6NmIZIovO3fXfj-722">
          <mxGeometry x="340" y="39" width="295" height="271" as="geometry" />
        </mxCell>
        <mxCell id="9T4JoW6NmIZIovO3fXfj-760" value="Server 2" style="fillColor=#EFF0F3;strokeColor=none;dashed=0;verticalAlign=top;fontStyle=0;fontColor=#232F3D;fontSize=10;" vertex="1" parent="9T4JoW6NmIZIovO3fXfj-759">
          <mxGeometry width="295" height="271" as="geometry" />
        </mxCell>
        <mxCell id="9T4JoW6NmIZIovO3fXfj-761" value="" style="sketch=0;outlineConnect=0;fontColor=#232F3E;gradientColor=none;fillColor=#D45B07;strokeColor=none;dashed=0;verticalLabelPosition=bottom;verticalAlign=top;align=center;html=1;fontSize=12;fontStyle=0;aspect=fixed;pointerEvents=1;shape=mxgraph.aws4.m5d_instance;" vertex="1" parent="9T4JoW6NmIZIovO3fXfj-759">
          <mxGeometry x="255" width="40" height="40" as="geometry" />
        </mxCell>
        <mxCell id="9T4JoW6NmIZIovO3fXfj-762" value="Tommy App(Crane)" style="sketch=0;points=[[0,0,0],[0.25,0,0],[0.5,0,0],[0.75,0,0],[1,0,0],[0,1,0],[0.25,1,0],[0.5,1,0],[0.75,1,0],[1,1,0],[0,0.25,0],[0,0.5,0],[0,0.75,0],[1,0.25,0],[1,0.5,0],[1,0.75,0]];outlineConnect=0;fontColor=#232F3E;gradientColor=#333333;gradientDirection=north;fillColor=#4D4D4D;strokeColor=#ffffff;dashed=0;verticalLabelPosition=bottom;verticalAlign=top;align=center;html=1;fontSize=12;fontStyle=0;aspect=fixed;shape=mxgraph.aws4.resourceIcon;resIcon=mxgraph.aws4.application_integration;" vertex="1" parent="9T4JoW6NmIZIovO3fXfj-759">
          <mxGeometry x="35" y="61" width="49" height="49" as="geometry" />
        </mxCell>
        <mxCell id="9T4JoW6NmIZIovO3fXfj-763" value="Tommy App(Portal)" style="sketch=0;points=[[0,0,0],[0.25,0,0],[0.5,0,0],[0.75,0,0],[1,0,0],[0,1,0],[0.25,1,0],[0.5,1,0],[0.75,1,0],[1,1,0],[0,0.25,0],[0,0.5,0],[0,0.75,0],[1,0.25,0],[1,0.5,0],[1,0.75,0]];outlineConnect=0;fontColor=#232F3E;gradientColor=#333333;gradientDirection=north;fillColor=#4D4D4D;strokeColor=#ffffff;dashed=0;verticalLabelPosition=bottom;verticalAlign=top;align=center;html=1;fontSize=12;fontStyle=0;aspect=fixed;shape=mxgraph.aws4.resourceIcon;resIcon=mxgraph.aws4.application_integration;" vertex="1" parent="9T4JoW6NmIZIovO3fXfj-759">
          <mxGeometry x="195" y="61" width="49" height="49" as="geometry" />
        </mxCell>
        <mxCell id="9T4JoW6NmIZIovO3fXfj-764" style="edgeStyle=none;rounded=0;orthogonalLoop=1;jettySize=auto;html=1;fontSize=10;fontColor=#333333;" edge="1" parent="9T4JoW6NmIZIovO3fXfj-759" source="9T4JoW6NmIZIovO3fXfj-762" target="9T4JoW6NmIZIovO3fXfj-763">
          <mxGeometry relative="1" as="geometry" />
        </mxCell>
        <mxCell id="9T4JoW6NmIZIovO3fXfj-765" value="CK App(Crane)" style="sketch=0;points=[[0,0,0],[0.25,0,0],[0.5,0,0],[0.75,0,0],[1,0,0],[0,1,0],[0.25,1,0],[0.5,1,0],[0.75,1,0],[1,1,0],[0,0.25,0],[0,0.5,0],[0,0.75,0],[1,0.25,0],[1,0.5,0],[1,0.75,0]];outlineConnect=0;fontColor=#232F3E;gradientColor=#FFFF00;gradientDirection=north;fillColor=#009999;strokeColor=#ffffff;dashed=0;verticalLabelPosition=bottom;verticalAlign=top;align=center;html=1;fontSize=12;fontStyle=0;aspect=fixed;shape=mxgraph.aws4.resourceIcon;resIcon=mxgraph.aws4.application_integration;" vertex="1" parent="9T4JoW6NmIZIovO3fXfj-759">
          <mxGeometry x="35" y="171" width="49" height="49" as="geometry" />
        </mxCell>
        <mxCell id="9T4JoW6NmIZIovO3fXfj-766" value="CK App(Portal)" style="sketch=0;points=[[0,0,0],[0.25,0,0],[0.5,0,0],[0.75,0,0],[1,0,0],[0,1,0],[0.25,1,0],[0.5,1,0],[0.75,1,0],[1,1,0],[0,0.25,0],[0,0.5,0],[0,0.75,0],[1,0.25,0],[1,0.5,0],[1,0.75,0]];outlineConnect=0;fontColor=#232F3E;gradientColor=#FFFF00;gradientDirection=north;fillColor=#009999;strokeColor=#ffffff;dashed=0;verticalLabelPosition=bottom;verticalAlign=top;align=center;html=1;fontSize=12;fontStyle=0;aspect=fixed;shape=mxgraph.aws4.resourceIcon;resIcon=mxgraph.aws4.application_integration;" vertex="1" parent="9T4JoW6NmIZIovO3fXfj-759">
          <mxGeometry x="195" y="171" width="49" height="49" as="geometry" />
        </mxCell>
        <mxCell id="9T4JoW6NmIZIovO3fXfj-767" style="edgeStyle=none;rounded=0;orthogonalLoop=1;jettySize=auto;html=1;fontSize=10;fontColor=#333333;" edge="1" parent="9T4JoW6NmIZIovO3fXfj-759" source="9T4JoW6NmIZIovO3fXfj-765" target="9T4JoW6NmIZIovO3fXfj-766">
          <mxGeometry relative="1" as="geometry" />
        </mxCell>
        <mxCell id="9T4JoW6NmIZIovO3fXfj-788" value="" style="shape=flexArrow;endArrow=classic;html=1;rounded=0;fontSize=10;fontColor=#333333;endWidth=12;endSize=5.17;" edge="1" parent="9T4JoW6NmIZIovO3fXfj-722">
          <mxGeometry width="50" height="50" relative="1" as="geometry">
            <mxPoint x="70" y="350" as="sourcePoint" />
            <mxPoint x="70" y="320" as="targetPoint" />
          </mxGeometry>
        </mxCell>
        <mxCell id="9T4JoW6NmIZIovO3fXfj-799" value="" style="shape=flexArrow;endArrow=classic;html=1;rounded=0;fontSize=10;fontColor=#333333;endWidth=12;endSize=5.17;" edge="1" parent="9T4JoW6NmIZIovO3fXfj-722">
          <mxGeometry width="50" height="50" relative="1" as="geometry">
            <mxPoint x="540" y="350" as="sourcePoint" />
            <mxPoint x="540" y="320" as="targetPoint" />
          </mxGeometry>
        </mxCell>
        <mxCell id="9T4JoW6NmIZIovO3fXfj-769" style="rounded=0;orthogonalLoop=1;jettySize=auto;html=1;entryX=0.61;entryY=0;entryDx=0;entryDy=0;fontSize=10;fontColor=#333333;entryPerimeter=0;" edge="1" parent="9T4JoW6NmIZIovO3fXfj-720" source="9T4JoW6NmIZIovO3fXfj-726" target="9T4JoW6NmIZIovO3fXfj-736">
          <mxGeometry relative="1" as="geometry" />
        </mxCell>
        <mxCell id="9T4JoW6NmIZIovO3fXfj-770" style="edgeStyle=none;rounded=0;orthogonalLoop=1;jettySize=auto;html=1;entryX=0;entryY=0;entryDx=0;entryDy=0;fontSize=10;fontColor=#333333;" edge="1" parent="9T4JoW6NmIZIovO3fXfj-720" source="9T4JoW6NmIZIovO3fXfj-726" target="9T4JoW6NmIZIovO3fXfj-760">
          <mxGeometry relative="1" as="geometry" />
        </mxCell>
        <mxCell id="9T4JoW6NmIZIovO3fXfj-726" value="Elastic Load Balancer" style="sketch=0;outlineConnect=0;fontColor=#232F3E;gradientColor=none;strokeColor=#ffffff;fillColor=#232F3E;dashed=0;verticalLabelPosition=middle;verticalAlign=bottom;align=center;html=1;whiteSpace=wrap;fontSize=10;fontStyle=1;spacing=3;shape=mxgraph.aws4.productIcon;prIcon=mxgraph.aws4.application_load_balancer;" vertex="1" parent="9T4JoW6NmIZIovO3fXfj-720">
          <mxGeometry x="160" y="65" width="70" height="100" as="geometry" />
        </mxCell>
        <mxCell id="9T4JoW6NmIZIovO3fXfj-768" style="edgeStyle=none;rounded=0;orthogonalLoop=1;jettySize=auto;html=1;fontSize=10;fontColor=#333333;" edge="1" parent="9T4JoW6NmIZIovO3fXfj-720" source="9T4JoW6NmIZIovO3fXfj-732">
          <mxGeometry relative="1" as="geometry">
            <mxPoint x="160" y="100" as="targetPoint" />
          </mxGeometry>
        </mxCell>
        <mxCell id="9T4JoW6NmIZIovO3fXfj-732" value="&lt;b&gt;&lt;font style=&quot;font-size: 10px&quot;&gt;Elastic IP&lt;/font&gt;&lt;/b&gt;" style="sketch=0;outlineConnect=0;fontColor=#232F3E;gradientColor=none;fillColor=#4D4D4D;strokeColor=none;dashed=0;verticalLabelPosition=bottom;verticalAlign=top;align=center;html=1;fontSize=12;fontStyle=0;aspect=fixed;pointerEvents=1;shape=mxgraph.aws4.customer_gateway;" vertex="1" parent="9T4JoW6NmIZIovO3fXfj-720">
          <mxGeometry x="30" y="65" width="70" height="70" as="geometry" />
        </mxCell>
        <mxCell id="9T4JoW6NmIZIovO3fXfj-786" value="中间件" style="points=[[0,0],[0.25,0],[0.5,0],[0.75,0],[1,0],[1,0.25],[1,0.5],[1,0.75],[1,1],[0.75,1],[0.5,1],[0.25,1],[0,1],[0,0.75],[0,0.5],[0,0.25]];outlineConnect=0;gradientColor=none;html=1;whiteSpace=wrap;fontSize=12;fontStyle=0;container=1;pointerEvents=0;collapsible=0;recursiveResize=0;shape=mxgraph.aws4.group;grIcon=mxgraph.aws4.group_region;strokeColor=#147EBA;fillColor=none;verticalAlign=top;align=left;spacingLeft=30;fontColor=#147EBA;dashed=1;" vertex="1" parent="1">
          <mxGeometry x="350" y="650" width="650" height="130" as="geometry" />
        </mxCell>
        <mxCell id="9T4JoW6NmIZIovO3fXfj-781" value="Server3" style="fillColor=#EFF0F3;strokeColor=none;dashed=0;verticalAlign=top;fontStyle=0;fontColor=#232F3D;fontSize=10;" vertex="1" parent="9T4JoW6NmIZIovO3fXfj-786">
          <mxGeometry x="15" y="30" width="295" height="100" as="geometry" />
        </mxCell>
        <mxCell id="9T4JoW6NmIZIovO3fXfj-784" value="IBI (BI soft)" style="sketch=0;points=[[0,0,0],[0.25,0,0],[0.5,0,0],[0.75,0,0],[1,0,0],[0,1,0],[0.25,1,0],[0.5,1,0],[0.75,1,0],[1,1,0],[0,0.25,0],[0,0.5,0],[0,0.75,0],[1,0.25,0],[1,0.5,0],[1,0.75,0]];outlineConnect=0;fontColor=#232F3E;gradientColor=#333333;gradientDirection=north;fillColor=#009999;strokeColor=#ffffff;dashed=0;verticalLabelPosition=bottom;verticalAlign=top;align=center;html=1;fontSize=12;fontStyle=0;aspect=fixed;shape=mxgraph.aws4.resourceIcon;resIcon=mxgraph.aws4.analytics;" vertex="1" parent="9T4JoW6NmIZIovO3fXfj-786">
          <mxGeometry x="40" y="55.25" width="49.5" height="49.5" as="geometry" />
        </mxCell>
        <mxCell id="9T4JoW6NmIZIovO3fXfj-785" value="Redis" style="sketch=0;aspect=fixed;html=1;points=[];align=center;image;fontSize=12;image=img/lib/mscae/Cache_Redis_Product.svg;fontColor=#333333;fillColor=#009999;gradientColor=#333333;" vertex="1" parent="9T4JoW6NmIZIovO3fXfj-786">
          <mxGeometry x="210" y="63.75" width="48.81" height="41" as="geometry" />
        </mxCell>
        <mxCell id="9T4JoW6NmIZIovO3fXfj-783" value="" style="sketch=0;outlineConnect=0;fontColor=#232F3E;gradientColor=none;fillColor=#D45B07;strokeColor=none;dashed=0;verticalLabelPosition=bottom;verticalAlign=top;align=center;html=1;fontSize=12;fontStyle=0;aspect=fixed;pointerEvents=1;shape=mxgraph.aws4.m5a_instance;" vertex="1" parent="9T4JoW6NmIZIovO3fXfj-786">
          <mxGeometry x="280" y="30" width="30" height="30" as="geometry" />
        </mxCell>
        <mxCell id="9T4JoW6NmIZIovO3fXfj-725" value="Amazon RDS (ORACLE)" style="sketch=0;outlineConnect=0;fontColor=#232F3E;gradientColor=none;strokeColor=#ffffff;fillColor=#232F3E;dashed=0;verticalLabelPosition=middle;verticalAlign=bottom;align=center;html=1;whiteSpace=wrap;fontSize=10;fontStyle=1;spacing=3;shape=mxgraph.aws4.productIcon;prIcon=mxgraph.aws4.rds;" vertex="1" parent="9T4JoW6NmIZIovO3fXfj-786">
          <mxGeometry x="360" y="34.25" width="70" height="100" as="geometry" />
        </mxCell>
        <mxCell id="9T4JoW6NmIZIovO3fXfj-723" value="Amazon S3" style="sketch=0;outlineConnect=0;fontColor=#232F3E;gradientColor=none;strokeColor=#ffffff;fillColor=#232F3E;dashed=0;verticalLabelPosition=middle;verticalAlign=bottom;align=center;html=1;whiteSpace=wrap;fontSize=10;fontStyle=1;spacing=3;shape=mxgraph.aws4.productIcon;prIcon=mxgraph.aws4.s3;" vertex="1" parent="9T4JoW6NmIZIovO3fXfj-786">
          <mxGeometry x="530" y="40" width="70" height="90" as="geometry" />
        </mxCell>
      </root>
    </mxGraphModel>
  </diagram>
</mxfile>
